<?xml version="1.0"?><svg xmlns="http://www.w3.org/2000/svg" id="Waypoint" viewBox="0 0 64 64"><defs><style>
      .cls-1 {
        fill: #da4956;
      }

      .cls-2 {
        fill: #28345a;
      }

      .cls-3 {
        fill: #f2b05c;
      }

      .cls-4 {
        fill: #f2d9bb;
      }
    </style></defs><rect class="cls-4" x="2" y="2" width="46" height="42" rx="1" ry="1"/><path class="cls-1" d="m55.99,22.58c-3.87-3.46-8.87-5.04-14.07-4.46-8.13.91-14.76,7.46-15.77,15.58-1.07,8.59,3.88,16.54,12.04,19.33.26.09.47.26.59.47l4.35,7.98c.17.32.51.52.88.52s.7-.2.88-.52l4.35-7.98c.12-.21.33-.38.59-.47,7.29-2.49,12.18-9.33,12.18-17.02,0-5.12-2.19-10.01-6.01-13.42Z"/><circle class="cls-4" cx="44" cy="36" r="8"/><path class="cls-2" d="m12,35c-.1,0-.21-.02-.32-.05-.52-.18-.81-.74-.63-1.26.06-.19,6.42-18.6,26.75-22.66.55-.11,1.07.24,1.18.78.11.54-.24,1.07-.78,1.18-19.17,3.83-25.19,21.16-25.25,21.34-.14.42-.53.68-.95.68Z"/><g><circle class="cls-3" cx="38" cy="12" r="4"/><circle class="cls-3" cx="12" cy="34" r="4"/><circle class="cls-3" cx="22" cy="20" r="4"/></g></svg>