<?xml version="1.0"?><svg xmlns="http://www.w3.org/2000/svg" id="Node" viewBox="0 0 64 64"><defs><style>
      .cls-1 {
        fill: #da4956;
      }

      .cls-2 {
        fill: #28345a;
      }

      .cls-3 {
        fill: #f2b05c;
      }

      .cls-4 {
        fill: #f2d9bb;
      }
    </style></defs><g><path class="cls-2" d="m32,8c-.55,0-1,.45-1,1v4c0,.55.45,1,1,1s1-.45,1-1v-4c0-.55-.45-1-1-1Z"/><path class="cls-2" d="m32,50c-.55,0-1,.45-1,1v4c0,.55.45,1,1,1s1-.45,1-1v-4c0-.55-.45-1-1-1Z"/><path class="cls-2" d="m55,31h-7c-.55,0-1,.45-1,1s.45,1,1,1h7c.55,0,1-.45,1-1s-.45-1-1-1Z"/><path class="cls-2" d="m16,31h-7c-.55,0-1,.45-1,1s.45,1,1,1h7c.55,0,1-.45,1-1s-.45-1-1-1Z"/></g><path class="cls-1" d="m32,16c-7.17,0-13,5.83-13,13,0,5.57,3.48,10.45,8.71,12.27l3.42,6.21c.18.32.51.52.88.52s.7-.2.88-.52l3.42-6.21c5.23-1.82,8.71-6.7,8.71-12.27,0-7.17-5.83-13-13-13Z"/><circle class="cls-4" cx="32" cy="29" r="6"/><g><circle class="cls-3" cx="32" cy="6" r="4"/><circle class="cls-3" cx="32" cy="58" r="4"/><circle class="cls-3" cx="58" cy="32" r="4"/><circle class="cls-3" cx="6" cy="32" r="4"/></g></svg>